<svg width="91" height="24" viewBox="0 0 91 24" fill="none" xmlns="http://www.w3.org/2000/svg">
<path d="M13.32 18.912C13.32 19.584 13.2 20.176 12.96 20.688C12.736 21.2 12.36 21.632 11.832 21.984C11.304 22.352 10.6 22.624 9.72 22.8C8.856 22.992 7.784 23.088 6.504 23.088C5.416 23.088 4.488 23.016 3.72 22.872C2.968 22.744 2.352 22.552 1.872 22.296C1.408 22.056 1.064 21.752 0.84 21.384C0.632 21.032 0.528 20.624 0.528 20.16C0.528 19.456 0.736 18.904 1.152 18.504C1.568 18.104 2.144 17.856 2.88 17.76V17.496C2.272 17.384 1.816 17.128 1.512 16.728C1.208 16.312 1.056 15.832 1.056 15.288C1.056 14.952 1.12 14.664 1.248 14.424C1.392 14.168 1.568 13.952 1.776 13.776C2 13.584 2.256 13.432 2.544 13.32C2.832 13.208 3.12 13.12 3.408 13.056V12.96C2.64 12.608 2.072 12.128 1.704 11.52C1.336 10.896 1.152 10.176 1.152 9.36C1.152 8.08 1.592 7.056 2.472 6.288C3.368 5.504 4.728 5.112 6.552 5.112C7.384 5.112 8.096 5.192 8.688 5.352V4.872C8.688 4.2 8.848 3.72 9.168 3.432C9.504 3.128 9.976 2.976 10.584 2.976H12.576V5.616H9.792V5.76C10.528 6.112 11.072 6.6 11.424 7.224C11.776 7.832 11.952 8.544 11.952 9.36C11.952 10.624 11.504 11.64 10.608 12.408C9.728 13.16 8.376 13.536 6.552 13.536C5.736 13.536 4.992 13.448 4.32 13.272C3.952 13.512 3.768 13.848 3.768 14.28C3.768 14.584 3.88 14.824 4.104 15C4.344 15.16 4.736 15.24 5.28 15.24H8.928C10.464 15.24 11.576 15.56 12.264 16.2C12.968 16.84 13.32 17.744 13.32 18.912ZM9.984 19.392C9.984 19.024 9.84 18.744 9.552 18.552C9.264 18.36 8.76 18.264 8.04 18.264H3.72C3.56 18.424 3.44 18.6 3.36 18.792C3.296 19 3.264 19.2 3.264 19.392C3.264 19.856 3.464 20.192 3.864 20.4C4.264 20.624 4.944 20.736 5.904 20.736H7.344C8.304 20.736 8.984 20.624 9.384 20.4C9.784 20.192 9.984 19.856 9.984 19.392ZM6.552 11.208C7.256 11.208 7.776 11.064 8.112 10.776C8.464 10.472 8.64 10.04 8.64 9.48V9.192C8.64 8.632 8.464 8.208 8.112 7.92C7.776 7.616 7.256 7.464 6.552 7.464C5.848 7.464 5.32 7.616 4.968 7.92C4.632 8.208 4.464 8.632 4.464 9.192V9.48C4.464 10.04 4.632 10.472 4.968 10.776C5.32 11.064 5.848 11.208 6.552 11.208ZM20.0136 18.288C19.0536 18.288 18.1976 18.136 17.4456 17.832C16.6936 17.512 16.0536 17.072 15.5256 16.512C15.0136 15.936 14.6216 15.24 14.3496 14.424C14.0936 13.608 13.9656 12.696 13.9656 11.688C13.9656 10.696 14.0936 9.8 14.3496 9C14.6056 8.184 14.9816 7.488 15.4776 6.912C15.9896 6.336 16.6136 5.896 17.3496 5.592C18.0856 5.272 18.9256 5.112 19.8696 5.112C20.9096 5.112 21.7976 5.288 22.5336 5.64C23.2856 5.992 23.8936 6.464 24.3576 7.056C24.8376 7.648 25.1816 8.336 25.3896 9.12C25.6136 9.888 25.7256 10.696 25.7256 11.544V12.6H17.6376V12.792C17.6376 13.624 17.8616 14.288 18.3096 14.784C18.7576 15.264 19.4616 15.504 20.4216 15.504C21.1576 15.504 21.7576 15.36 22.2216 15.072C22.6856 14.768 23.1176 14.408 23.5176 13.992L25.2936 16.2C24.7336 16.856 23.9976 17.368 23.0856 17.736C22.1896 18.104 21.1656 18.288 20.0136 18.288ZM19.9416 7.728C19.2216 7.728 18.6536 7.968 18.2376 8.448C17.8376 8.912 17.6376 9.536 17.6376 10.32V10.512H22.0536V10.296C22.0536 9.528 21.8776 8.912 21.5256 8.448C21.1896 7.968 20.6616 7.728 19.9416 7.728ZM32.6501 18C31.4181 18 30.4821 17.688 29.8421 17.064C29.2181 16.44 28.9061 15.528 28.9061 14.328V8.16H27.1301V5.4H28.0181C28.4981 5.4 28.8261 5.288 29.0021 5.064C29.1781 4.824 29.2661 4.488 29.2661 4.056V1.992H32.4581V5.4H34.9541V8.16H32.4581V15.24H34.7621V18H32.6501ZM41.6936 18.288C40.4776 18.288 39.4536 18.096 38.6216 17.712C37.7896 17.312 37.0456 16.752 36.3896 16.032L38.4776 13.92C38.9256 14.416 39.4216 14.808 39.9656 15.096C40.5096 15.384 41.1256 15.528 41.8136 15.528C42.5176 15.528 43.0056 15.424 43.2776 15.216C43.5496 14.992 43.6856 14.696 43.6856 14.328C43.6856 13.736 43.2616 13.384 42.4136 13.272L41.0456 13.104C38.2136 12.752 36.7976 11.456 36.7976 9.216C36.7976 8.608 36.9096 8.056 37.1336 7.56C37.3736 7.048 37.7016 6.616 38.1176 6.264C38.5496 5.896 39.0616 5.616 39.6536 5.424C40.2616 5.216 40.9416 5.112 41.6936 5.112C42.3496 5.112 42.9256 5.16 43.4216 5.256C43.9336 5.336 44.3816 5.464 44.7656 5.64C45.1656 5.8 45.5256 6.008 45.8456 6.264C46.1816 6.504 46.5096 6.776 46.8296 7.08L44.7896 9.168C44.3896 8.768 43.9336 8.456 43.4216 8.232C42.9256 7.992 42.4136 7.872 41.8856 7.872C41.2776 7.872 40.8456 7.968 40.5896 8.16C40.3336 8.352 40.2056 8.608 40.2056 8.928C40.2056 9.264 40.2936 9.528 40.4696 9.72C40.6616 9.896 41.0136 10.024 41.5256 10.104L42.9416 10.296C45.7096 10.664 47.0936 11.928 47.0936 14.088C47.0936 14.696 46.9656 15.256 46.7096 15.768C46.4536 16.28 46.0856 16.728 45.6056 17.112C45.1416 17.48 44.5736 17.768 43.9016 17.976C43.2456 18.184 42.5096 18.288 41.6936 18.288ZM54.7714 18.288C53.8114 18.288 52.9554 18.136 52.2034 17.832C51.4514 17.512 50.8114 17.072 50.2834 16.512C49.7714 15.936 49.3794 15.24 49.1074 14.424C48.8514 13.608 48.7234 12.696 48.7234 11.688C48.7234 10.696 48.8514 9.8 49.1074 9C49.3634 8.184 49.7394 7.488 50.2354 6.912C50.7474 6.336 51.3714 5.896 52.1074 5.592C52.8434 5.272 53.6834 5.112 54.6274 5.112C55.6674 5.112 56.5554 5.288 57.2914 5.64C58.0434 5.992 58.6514 6.464 59.1154 7.056C59.5954 7.648 59.9394 8.336 60.1474 9.12C60.3714 9.888 60.4834 10.696 60.4834 11.544V12.6H52.3954V12.792C52.3954 13.624 52.6194 14.288 53.0674 14.784C53.5154 15.264 54.2194 15.504 55.1794 15.504C55.9154 15.504 56.5154 15.36 56.9794 15.072C57.4434 14.768 57.8754 14.408 58.2754 13.992L60.0514 16.2C59.4914 16.856 58.7554 17.368 57.8434 17.736C56.9474 18.104 55.9234 18.288 54.7714 18.288ZM54.6994 7.728C53.9794 7.728 53.4114 7.968 52.9954 8.448C52.5954 8.912 52.3954 9.536 52.3954 10.32V10.512H56.8114V10.296C56.8114 9.528 56.6354 8.912 56.2834 8.448C55.9474 7.968 55.4194 7.728 54.6994 7.728ZM62.9919 18V5.4H66.5439V7.536H66.6879C66.9119 6.88 67.3039 6.312 67.8639 5.832C68.4239 5.352 69.1999 5.112 70.1919 5.112C71.4879 5.112 72.4639 5.544 73.1199 6.408C73.7919 7.272 74.1279 8.504 74.1279 10.104V18H70.5759V10.392C70.5759 9.576 70.4479 8.976 70.1919 8.592C69.9359 8.192 69.4799 7.992 68.8239 7.992C68.5359 7.992 68.2559 8.032 67.9839 8.112C67.7119 8.176 67.4639 8.288 67.2399 8.448C67.0319 8.608 66.8639 8.808 66.7359 9.048C66.6079 9.272 66.5439 9.536 66.5439 9.84V18H62.9919ZM81.7048 18C80.4728 18 79.5368 17.688 78.8968 17.064C78.2728 16.44 77.9608 15.528 77.9608 14.328V8.16H76.1848V5.4H77.0728C77.5528 5.4 77.8808 5.288 78.0568 5.064C78.2328 4.824 78.3208 4.488 78.3208 4.056V1.992H81.5128V5.4H84.0088V8.16H81.5128V15.24H83.8168V18H81.7048ZM88.2523 4.056C87.5323 4.056 87.0043 3.896 86.6683 3.576C86.3483 3.24 86.1883 2.816 86.1883 2.304V1.776C86.1883 1.264 86.3483 0.848 86.6683 0.527999C87.0043 0.191999 87.5323 0.0239997 88.2523 0.0239997C88.9723 0.0239997 89.4923 0.191999 89.8123 0.527999C90.1483 0.848 90.3163 1.264 90.3163 1.776V2.304C90.3163 2.816 90.1483 3.24 89.8123 3.576C89.4923 3.896 88.9723 4.056 88.2523 4.056ZM86.4763 5.4H90.0283V18H86.4763V5.4Z" fill="#0009D6"/>
</svg>
