<svg width="95" height="25" viewBox="0 0 95 25" fill="none" xmlns="http://www.w3.org/2000/svg">
<path d="M33.6524 19.6726C32.3623 19.6726 31.3863 19.3459 30.7246 18.6925C30.0627 18.0392 29.7318 17.0842 29.7318 15.8278V9.36966H27.872V6.47979H28.8019C29.3046 6.47979 29.648 6.35825 29.8323 6.11537C30.0166 5.87249 30.1087 5.52491 30.1087 5.07252V2.91142H33.4515V6.47979H35.6882H36.0652V9.36966H35.6882H34.7583C34.2556 9.36966 33.9122 9.4912 33.728 9.73408C33.5465 9.97321 33.4545 10.3137 33.4515 10.7558V12.938V16.7827H35.8642V19.6725H33.6524V19.6726ZM85.0482 19.6726C83.7581 19.6726 82.7821 19.3459 82.1204 18.6925C81.4585 18.0392 81.1276 17.0842 81.1276 15.8278V9.36966H79.2678V6.47979H80.1977C80.7004 6.47979 81.0438 6.35825 81.2281 6.11537C81.4124 5.87249 81.5045 5.52491 81.5045 5.07252V2.91142H84.8473V6.47979H87.084H87.461V9.36966H87.084H86.1541C85.6514 9.36966 85.308 9.4912 85.1237 9.73408C84.9423 9.97321 84.8502 10.3137 84.8473 10.7558V12.938V16.7827H87.2599V19.6725H85.0482V19.6726ZM13.3956 20.6275C13.3956 21.3311 13.2742 21.951 13.0313 22.487C12.7882 23.0231 12.3904 23.4797 11.8374 23.8566C11.2846 24.2335 10.5515 24.5184 9.63835 24.7109C8.72524 24.9036 7.59852 24.9999 6.25807 24.9999C5.1187 24.9999 4.15105 24.9287 3.35529 24.7864C2.55935 24.6438 1.91433 24.4428 1.41998 24.1832C0.925824 23.9235 0.565552 23.6053 0.339293 23.2282C0.113225 22.8513 0 22.4199 0 21.9341C0 21.1969 0.217867 20.619 0.653538 20.2002C1.08921 19.7813 1.6924 19.5217 2.46297 19.4213V19.1447C1.82641 19.0275 1.34878 18.7553 1.03047 18.3281C0.712026 17.9008 0.552964 17.3983 0.552964 16.8287C0.552964 16.4768 0.624167 16.1711 0.766572 15.9114C0.908977 15.6518 1.09334 15.4257 1.3196 15.2329C1.54567 15.0404 1.80963 14.8854 2.11122 14.7681C2.41281 14.6508 2.71441 14.5586 3.016 14.4874V14.4127C2.6495 14.2458 2.32686 14.0432 2.04835 13.8047L1.98719 13.7512C1.68044 13.4943 1.42863 13.2005 1.23161 12.8707C0.9866 12.4606 0.819338 12.0079 0.730208 11.513L0.728237 11.5023L0.721816 11.4657L0.72029 11.4566L0.715713 11.4291L0.711136 11.3999L0.710055 11.3921L0.704524 11.3551L0.702744 11.3426L0.699438 11.3179C0.677314 11.1566 0.663265 10.9906 0.657161 10.8202L0.656716 10.8104L0.65589 10.7808L0.655064 10.7494L0.654936 10.7413L0.654237 10.7017L0.653983 10.6879L0.653856 10.6618L0.653728 10.6261V10.6219L0.653856 10.586V10.5827L0.654301 10.5463L0.655 10.5067L0.655127 10.4971L0.655954 10.4671L0.65678 10.4353L0.657034 10.4278L0.65856 10.3885L0.659132 10.3738L0.660404 10.3495L0.662184 10.3128L0.662311 10.3107L0.664663 10.2719L0.665935 10.2521L0.666189 10.2491C0.713297 9.54936 0.893147 8.92521 1.20657 8.37702C1.42265 7.999 1.70784 7.6684 2.06201 7.38534C2.3116 7.16941 2.5961 6.98272 2.91562 6.82463V6.70602H0.000317869V3.94181H2.08617C2.72286 3.94181 3.21302 4.09672 3.5565 4.4066C3.89993 4.71661 4.07171 5.22342 4.07171 5.9269V6.41432C4.52391 6.30492 5.02181 6.23373 5.56581 6.20036L5.60339 6.19813L5.61521 6.1973L5.64096 6.19591L5.67879 6.19394L5.69938 6.19285L5.71674 6.19203L5.75495 6.19025L5.78432 6.18898L5.79335 6.18872L5.80352 6.18828L5.86982 6.1858L5.87052 6.18567L5.90943 6.1844L5.94853 6.18332L5.95616 6.18307L5.98788 6.18224L6.02723 6.18141L6.04325 6.18097L6.06703 6.18052L6.10683 6.17982L6.13105 6.17957L6.14688 6.17932L6.18706 6.17887L6.21948 6.17862H6.22743L6.26805 6.17836H6.30867H6.3088H6.34942L6.39005 6.17862H6.39799L6.43042 6.17887L6.4706 6.17932L6.48643 6.17957L6.51065 6.17982L6.55044 6.18052L6.57422 6.18097L6.59024 6.18141L6.62959 6.18224L6.66132 6.18307L6.66895 6.18332L6.70804 6.1844L6.74695 6.18567L6.74765 6.1858L6.81396 6.18828L6.82413 6.18872L6.83316 6.18898L6.86253 6.19025L6.90074 6.19203L6.91809 6.19285L6.93869 6.19394L6.97652 6.19591L7.00226 6.1973L7.01409 6.19813L7.05166 6.20036C8.59135 6.29475 9.76384 6.69362 10.5689 7.39697C10.9092 7.69433 11.1873 8.02665 11.4031 8.394C11.765 9.01033 11.9519 9.72594 11.9632 10.5426V10.5463L11.9636 10.5822V10.586L11.9637 10.6219V10.6261L11.9636 10.6618L11.9635 10.6879L11.9632 10.7017L11.9625 10.7413L11.9624 10.7494L11.9616 10.7808L11.9608 10.8104L11.9603 10.8202C11.9543 10.9906 11.9402 11.1566 11.918 11.3179L11.9147 11.3426L11.913 11.3551L11.9074 11.3921L11.9063 11.3999L11.9018 11.4291L11.8972 11.4566L11.8957 11.4657L11.8892 11.5023L11.8873 11.513C11.7981 12.0079 11.631 12.4605 11.3859 12.8707C11.3807 12.8794 11.3702 12.89 11.3557 12.9024C11.1471 13.2337 10.885 13.5345 10.5691 13.8047C9.63911 14.6006 8.21913 14.9983 6.30918 14.9983H6.30906H6.269L6.22908 14.9981H6.22005L6.18935 14.9978H6.18687C5.34324 14.9902 4.59727 14.9033 3.94926 14.737C3.57895 14.9872 3.39376 15.334 3.39376 15.7775C3.39376 16.0958 3.51531 16.3428 3.75822 16.5188C4.00114 16.6947 4.40744 16.7825 4.97712 16.7825H8.7972C10.4057 16.7825 11.5743 17.1176 12.3032 17.7877C13.032 18.4579 13.3964 19.4044 13.3964 20.6273L13.3956 20.6275ZM9.90224 21.1301C9.90224 20.7448 9.75138 20.4516 9.44991 20.2506C9.14832 20.0495 8.62047 19.949 7.86655 19.949H3.34258C3.17519 20.1166 3.05364 20.3051 2.9783 20.5144C2.90278 20.7238 2.86514 20.929 2.86514 21.1301C2.86514 21.616 3.07468 21.9719 3.4935 22.1981C3.91233 22.4243 4.62442 22.5374 5.62971 22.5374H7.13767C8.14303 22.5374 8.85506 22.4243 9.27388 22.1981C9.69283 21.9719 9.90224 21.616 9.90224 21.1301ZM6.30823 12.5359H6.30836L6.34269 12.5357L6.37676 12.5355H6.37689L6.41065 12.5349H6.41077L6.44415 12.5341H6.44428L6.47753 12.5331H6.47765L6.51046 12.5318H6.51058L6.54326 12.5303H6.54339L6.57581 12.5287L6.60792 12.5267H6.60804L6.63989 12.5246H6.64002L6.67155 12.5221L6.70283 12.5196H6.70296L6.73398 12.5167H6.73411L6.76481 12.5137L6.79539 12.5105L6.82559 12.507H6.82572L6.8556 12.5032H6.85573L6.88535 12.4992L6.91485 12.495L6.94403 12.4907L6.97283 12.486H6.97296L7.00144 12.4811H7.00156L7.02979 12.4761L7.05789 12.4708L7.08567 12.4653L7.1132 12.4594L7.14047 12.4535L7.16743 12.4474L7.19413 12.4409L7.22058 12.4343L7.2467 12.4273L7.27245 12.4202H7.27258L7.29801 12.4129H7.29813L7.32344 12.4054L7.34849 12.3976L7.37322 12.3897L7.39769 12.3815L7.42191 12.373L7.44582 12.3644L7.46947 12.3555L7.4928 12.3463L7.51587 12.337L7.5387 12.3274L7.5612 12.3176L7.58358 12.3077L7.60558 12.2974L7.62726 12.2869L7.64868 12.2762L7.66979 12.2654L7.69077 12.2543L7.71136 12.2429L7.73164 12.2313L7.75167 12.2196L7.77157 12.2075L7.79102 12.1953L7.81022 12.1829L7.8291 12.1703L7.84786 12.1574L7.86623 12.1443L7.88428 12.1309L7.90221 12.1173L7.91976 12.1035L7.93711 12.0895L7.95409 12.0753C8.31436 11.7654 8.49447 11.3214 8.49447 10.7392V10.4377C8.49447 9.85555 8.31442 9.41161 7.95409 9.10173L7.93711 9.08756L7.91976 9.07351L7.90221 9.05972L7.88428 9.04611L7.86623 9.03276L7.84786 9.01967L7.8291 9.00677L7.81022 8.99412L7.79102 8.98172L7.77157 8.96952L7.75167 8.95744L7.73164 8.94574L7.71136 8.93405L7.69077 8.9228L7.66979 8.91167L7.64868 8.90067L7.62726 8.89012L7.60558 8.8797L7.58358 8.8694L7.5612 8.85942L7.5387 8.8497L7.51587 8.8401L7.4928 8.83075L7.46947 8.8216L7.44582 8.8127L7.42191 8.80406L7.39769 8.7956L7.37322 8.7874L7.34849 8.77933L7.32344 8.77157L7.29813 8.76407H7.29801L7.27258 8.7567H7.27245L7.2467 8.74958L7.22058 8.74278L7.19413 8.7361L7.16743 8.72968L7.14047 8.72345L7.1132 8.71748L7.08567 8.71176L7.05789 8.70623L7.02979 8.70095L7.00156 8.6958H7.00144L6.97296 8.69091H6.97283L6.94403 8.68633L6.91485 8.68188L6.88535 8.67769L6.85573 8.67368H6.8556L6.82572 8.67006H6.82559L6.79539 8.66644L6.76481 8.66326L6.73411 8.66021H6.73398L6.70296 8.65728H6.70283L6.67155 8.65481L6.64002 8.65245H6.63989L6.60804 8.65023H6.60792L6.57581 8.64826L6.54339 8.6466H6.54326L6.51058 8.64508H6.51046L6.47765 8.64381H6.47753L6.44428 8.64285H6.44415L6.41077 8.64203H6.41065L6.37689 8.64146H6.37676L6.34269 8.6412L6.30836 8.64107H6.30823L6.2739 8.6412L6.23982 8.64146H6.2397L6.20594 8.64203H6.20581L6.17244 8.64285H6.17231L6.13906 8.64381H6.13893L6.10613 8.64508H6.106L6.07332 8.6466H6.0732L6.04077 8.64826L6.00867 8.65023H6.00854L5.97669 8.65245H5.97656L5.94503 8.65481L5.91375 8.65728H5.91363L5.8826 8.66021H5.88248L5.85177 8.66326L5.82119 8.66644L5.79099 8.67006H5.79087L5.76099 8.67368H5.76086L5.73123 8.67769L5.70174 8.68188L5.67256 8.68633L5.64376 8.69091H5.64363L5.61515 8.6958H5.61502L5.58679 8.70095L5.55869 8.70623L5.53091 8.71176L5.50339 8.71748L5.47611 8.72345L5.44916 8.72968L5.42246 8.7361L5.39601 8.74278L5.36988 8.74958L5.34401 8.7567L5.31858 8.76407H5.31845L5.29315 8.77157L5.2681 8.77933L5.24337 8.7874L5.21889 8.7956L5.19467 8.80406L5.17077 8.8127L5.14712 8.8216L5.12379 8.83075L5.10071 8.8401L5.07789 8.8497L5.05538 8.85942L5.033 8.8694L5.01101 8.8797L4.98933 8.89012L4.9679 8.90067L4.9468 8.91167L4.92582 8.9228L4.90522 8.93405L4.88494 8.94574L4.86491 8.95744L4.84502 8.96952L4.82556 8.98172L4.80636 8.99412L4.78748 9.00677L4.76873 9.01967L4.75035 9.03276L4.7323 9.04611L4.71437 9.05972L4.69683 9.07351L4.67947 9.08756L4.6625 9.10173C4.30222 9.41161 4.12212 9.85555 4.12212 10.4377V10.7392C4.12212 11.3214 4.30216 11.7654 4.6625 12.0753L4.67947 12.0895L4.69683 12.1035L4.71437 12.1173L4.7323 12.1309L4.75035 12.1443L4.76873 12.1574L4.78748 12.1703L4.80636 12.1829L4.82556 12.1953L4.84502 12.2075L4.86491 12.2196L4.88494 12.2313L4.90522 12.2429L4.92582 12.2543L4.9468 12.2654L4.9679 12.2762L4.98933 12.2869L5.01101 12.2974L5.033 12.3077L5.05538 12.3176L5.07789 12.3274L5.10071 12.337L5.12379 12.3463L5.14712 12.3555L5.17077 12.3644L5.19467 12.373L5.21889 12.3815L5.24337 12.3897L5.2681 12.3976L5.29315 12.4054L5.31845 12.4129H5.31858L5.34401 12.4202L5.36988 12.4273L5.39601 12.4343L5.42246 12.4409L5.44916 12.4474L5.47611 12.4535L5.50339 12.4594L5.53091 12.4653L5.55869 12.4708L5.58679 12.4761L5.61502 12.4811H5.61515L5.64363 12.486H5.64376L5.67256 12.4907L5.70174 12.495L5.73123 12.4992L5.76086 12.5032H5.76099L5.79087 12.507H5.79099L5.82119 12.5105L5.85177 12.5137L5.88248 12.5167H5.8826L5.91363 12.5196H5.91375L5.94503 12.5221L5.97656 12.5246H5.97669L6.00854 12.5267H6.00867L6.04077 12.5287L6.0732 12.5303H6.07332L6.106 12.5318H6.10613L6.13893 12.5331H6.13906L6.17231 12.5341H6.17244L6.20581 12.5349H6.20594L6.2397 12.5355H6.23982L6.2739 12.5357L6.30823 12.5359ZM20.4077 19.9741C19.4023 19.9741 18.5059 19.8108 17.7184 19.4841C16.931 19.1575 16.265 18.6967 15.7204 18.102C15.1758 17.5073 14.7653 16.7827 14.4889 15.9283C14.2125 15.074 14.0743 14.119 14.0743 13.0636C14.0743 12.0248 14.2083 11.0825 14.4764 10.2365C14.7445 9.39051 15.1423 8.66599 15.6701 8.06288C16.1979 7.45978 16.8472 6.99486 17.6179 6.66813C18.3886 6.34153 19.2682 6.17817 20.2567 6.17817C21.3458 6.17817 22.2799 6.36238 23.059 6.73094C23.8381 7.09949 24.4748 7.59377 24.9691 8.21353C25.4633 8.83349 25.8236 9.54961 26.0498 10.3621C26.2761 11.1746 26.3891 12.0248 26.3891 12.9128V14.0184H17.9195V14.2194C17.9195 15.0823 18.1541 15.7649 18.6232 16.2717C19.0924 16.7784 19.8295 17.0339 20.8348 17.0339C21.6056 17.0339 22.234 16.8789 22.7198 16.5732C23.2057 16.2633 23.6581 15.8947 24.0769 15.4633L25.9367 17.7836C25.3503 18.4704 24.5837 19.0065 23.6371 19.396C22.6904 19.7813 21.6139 19.974 20.4077 19.974V19.9741ZM20.3321 8.91727C19.5782 8.91727 18.9876 9.16434 18.5604 9.65856C18.1331 10.1528 17.9195 10.8103 17.9195 11.6313V11.8323H22.5439V11.6061C22.5439 10.8019 22.3638 10.1528 22.0035 9.65856C21.6432 9.16428 21.0862 8.91727 20.3321 8.91727ZM43.1273 19.9741C41.8539 19.9741 40.7816 19.769 39.9104 19.3585C39.0392 18.9481 38.2601 18.3658 37.573 17.612L39.7596 15.4006C40.2287 15.9199 40.7481 16.3304 41.3178 16.6319C41.8874 16.9335 42.5325 17.0842 43.2531 17.0842C43.9903 17.0842 44.5013 16.9712 44.7861 16.745C45.071 16.5189 45.2134 16.213 45.2134 15.8278C45.2134 15.2079 44.7694 14.8394 43.8812 14.7221L42.4487 14.5462C39.4831 14.1776 38.0003 12.8206 38.0003 10.4752C38.0003 9.83858 38.1218 9.25645 38.3648 8.72879C38.6077 8.20101 38.9511 7.74862 39.3951 7.37174C39.8392 6.99479 40.3753 6.70163 41.0036 6.49225C41.632 6.28286 42.3399 6.17817 43.1273 6.17817C43.8142 6.17817 44.4216 6.22419 44.9494 6.31636C45.4773 6.40853 45.9464 6.54259 46.3569 6.71841C46.7674 6.8943 47.1443 7.11214 47.4878 7.37174C47.8312 7.63147 48.1706 7.9205 48.5056 8.23871L46.3694 10.425C45.9506 10.0061 45.4773 9.67535 44.9494 9.43227C44.4216 9.18939 43.8812 9.06804 43.3283 9.06804C42.6917 9.06804 42.2393 9.16854 41.9712 9.3696C41.7031 9.57065 41.5691 9.83852 41.5691 10.1736C41.5691 10.5255 41.6655 10.7977 41.8581 10.9904C42.0508 11.183 42.4152 11.3212 42.9514 11.405L44.4342 11.6061C47.3329 11.9914 48.7821 13.3149 48.7821 15.5765C48.7821 16.213 48.6481 16.7994 48.38 17.3355C48.1119 17.8717 47.7307 18.3364 47.2365 18.7302C46.7421 19.1239 46.1475 19.4296 45.452 19.6474C44.7567 19.8652 43.9817 19.9741 43.1273 19.9741L43.1273 19.9741ZM56.8245 19.9741C55.8192 19.9741 54.9227 19.8108 54.1353 19.4841C53.3479 19.1575 52.6818 18.6967 52.1373 18.102C51.5927 17.5073 51.1822 16.7827 50.9058 15.9283C50.6293 15.074 50.4911 14.119 50.4911 13.0636C50.4911 12.0248 50.6251 11.0825 50.8932 10.2365C51.1613 9.39051 51.5592 8.66599 52.087 8.06288C52.6148 7.45978 53.264 6.99486 54.0347 6.66813C54.8055 6.34153 55.6851 6.17817 56.6736 6.17817C57.7626 6.17817 58.6968 6.36238 59.4759 6.73094C60.255 7.09949 60.8917 7.59377 61.386 8.21353C61.8802 8.83349 62.2404 9.54961 62.4667 10.3621C62.693 11.1746 62.806 12.0248 62.806 12.9128V14.0184H54.3364V14.2194C54.3364 15.0823 54.571 15.7649 55.0401 16.2717C55.5093 16.7784 56.2463 17.0339 57.2517 17.0339C58.0225 17.0339 58.6508 16.8789 59.1366 16.5732C59.6226 16.2633 60.0749 15.8947 60.4938 15.4633L62.3535 17.7836C61.7672 18.4704 61.0006 19.0065 60.054 19.396C59.1073 19.7813 58.0308 19.974 56.8245 19.974V19.9741ZM56.749 8.91727C55.9951 8.91727 55.4044 9.16434 54.9773 9.65856C54.55 10.1528 54.3364 10.8103 54.3364 11.6313V11.8323H58.9607V11.6061C58.9607 10.8019 58.7807 10.1528 58.4204 9.65856C58.0601 9.16428 57.5031 8.91727 56.749 8.91727ZM65.4449 19.6726V6.47979H69.1646V8.71627C69.1646 8.37899 69.849 6.17823 72.9847 6.17823C74.3418 6.17823 75.3681 6.6305 76.0633 7.53516C76.7587 8.43983 77.1063 9.72976 77.1063 11.4051V19.6726H73.3868V11.7066C73.3868 10.8523 73.2527 10.2198 72.9847 9.80941C72.7166 9.39884 72.2391 9.19365 71.552 9.19365C71.2506 9.19365 70.9573 9.23134 70.6724 9.30679C70.3877 9.38212 70.132 9.50366 69.906 9.67102C69.6797 9.83858 69.4997 10.0439 69.3656 10.2868C69.2316 10.5297 69.1645 10.8102 69.1645 11.1286V19.6725H65.4448L65.4449 19.6726ZM90.0495 6.47979H93.7692V19.6726H90.0495V6.47979ZM92.8385 0C93.5925 0 94.1412 0.17169 94.4846 0.515134C94.8282 0.858514 94.9999 1.29832 94.9999 1.83437V2.11088H92.8385V0Z" fill="white"/>
</svg>
